<?xml version="1.0" encoding="utf-8"?>
<!-- Generator: Adobe Illustrator 21.0.0, SVG Export Plug-In . SVG Version: 6.00 Build 0)  -->
<svg version="1.1" xmlns="http://www.w3.org/2000/svg" xmlns:xlink="http://www.w3.org/1999/xlink" x="0px" y="0px"
	 viewBox="0 0 244.1 254" style="enable-background:new 0 0 244.1 254;" xml:space="preserve">
<style type="text/css">
	.st0{display:none;}
	.st1{fill-rule:evenodd;clip-rule:evenodd;fill:#FBB033;}
</style>
<g id="Layer_2" class="st0">
</g>
<g id="Layer_1">
	<g>
		<path class="st1" d="M130.4,0.5c1.2,0.1,2.4,0.3,3.6,0.4c7.6,0.5,15,2,22.3,4c14.5,4.1,27.7,10.7,39.7,19.8
			c8.3,6.3,15.7,13.6,22.1,21.8c8.3,10.5,14.7,22.1,19.1,34.7c2.3,6.6,4.2,13.4,5.1,20.4c0.5,4,1,8.1,1.2,12.1
			c0.2,3.5,0.3,6.9,0.2,10.4c-0.6,14.9-4,29.1-9.8,42.8c-1.1,2.6-2.3,5.2-3.6,7.9c1.2,0.1,2.4,0.3,3.6,0.4c2.3,0.1,4.5,0,6.8,0
			c1.3,0,2.5,0.3,3,1.6c0.5,1.2,0.5,2.6-0.5,3.6c-1.9,1.9-3.8,3.9-6,5.6c-8,6.3-16.8,11.7-25.5,16.9c-0.4,0.2-0.8,0.5-1.2,0.9
			c0.9-0.1,1.8-0.1,2.6-0.3c4.5-0.6,9-1.2,13.5-1.8c0.7-0.1,1.6-0.3,2.2-0.1c2.1,0.6,2.7,2.8,1.2,4.4c-1.1,1.2-2.3,2.2-3.5,3.3
			c-8.6,7.5-17.7,14.4-27.8,20c-3,1.7-6.1,3.2-9.3,4.8c1,0.5,2,1,3,1.4c1.1,0.4,2.3,0.8,3.4,1.2c1.2,0.4,2.3,1.1,2.6,2.4
			c0.4,1.5-0.5,2.5-1.5,3.4c-2.4,2.1-5.2,3.5-8.2,4.7c-6.4,2.6-13,4.3-19.7,5.4c-4.7,0.8-9.4,1.4-14.1,1.2c-6.4-0.2-12.7-1.1-18.6-4
			c-6.4-3.2-10.6-8.3-13-14.9c-0.1-0.3-0.5-0.6-0.7-0.8c-0.3,0.3-0.7,0.5-0.8,0.8c-3.4,9.7-10.4,15.2-20.1,17.6
			c-5.2,1.3-10.5,1.8-15.8,1.4c-10.7-0.7-21.1-2.8-31-7.3c-2.4-1.1-4.5-2.6-6.7-4.1c-1.1-0.7-1.9-1.8-1.5-3.2
			c0.3-1.4,1.4-2.1,2.7-2.5c1.9-0.7,3.8-1.5,5.7-2.2c0.2-0.1,0.4-0.3,0.8-0.5c-0.6-0.3-1.1-0.5-1.6-0.7c-9.5-4.3-18.2-10-26.4-16.4
			c-4-3.1-7.8-6.5-11.7-9.8c-0.9-0.8-1.9-1.6-1.8-3c0.1-1.4,1.5-2.7,3-2.5c3.6,0.5,7.2,0.9,10.8,1.4c2.3,0.3,4.6,0.7,7,0.9
			c-1.2-0.7-2.4-1.4-3.6-2.2c-7.4-4.5-14.8-9.1-21.7-14.3c-2-1.6-4-3.2-5.9-5c-1-0.9-1.7-2.1-2.6-3.2c0-0.7,0-1.4,0-2.1
			c0.9-1.4,2.2-1.9,3.8-1.9c2.4,0,4.8,0,7.2,0c0.9,0,1.7-0.2,2.7-0.3c-0.2-0.5-0.3-0.8-0.5-1c-1.8-4.2-3.8-8.4-5.4-12.7
			c-4.2-11.1-6.6-22.7-7.3-34.5c-0.2-3.6-0.1-7.1,0-10.7c0.1-3,0.2-6,0.6-9c0.6-4.4,1.2-8.7,2.2-13c2.5-11,6.6-21.4,12.1-31.3
			c7.5-13.4,17.2-25,29.1-34.8c9-7.4,18.7-13.3,29.4-17.8c7.9-3.4,16.1-6,24.6-7.4c4-0.7,8-1.1,12.1-1.7c1.1-0.2,2.3-0.3,3.4-0.4
			C120.3,0.5,125.3,0.5,130.4,0.5z M188,168.4c0.1,0.1,0.3,0.2,0.5,0.2c8.4,2.1,16.7,4.4,25.3,5c3.6,0.3,7.2,0.5,10.7,0.8
			c0.7,0.1,1.1-0.2,1.4-0.8c1.8-4,4-8,5.5-12.1c5.1-13.6,8.2-27.6,7.9-42.2c-0.1-3.5-0.2-7-0.7-10.5c-0.6-4.7-1.3-9.4-2.3-14
			C234,83.6,229.9,73,224.2,63c-7.3-12.7-16.6-23.7-28-32.9c-8.3-6.7-17.4-12-27.2-16.2c-10.2-4.3-20.9-7.2-31.9-8.4
			c-4.5-0.5-9.1-0.9-13.6-1c-3.7-0.1-7.3,0.2-11,0.6c-4.7,0.5-9.5,1.2-14.2,2.1C87.6,9.3,77.4,13,67.8,18c-13.5,7.1-25,16.5-34.9,28
			C26.2,53.9,20.6,62.5,16.4,72c-4.5,10.1-7.9,20.5-9.3,31.5c-0.6,4.5-1.1,9-1.2,13.5c-0.1,4.7,0.2,9.5,0.6,14.2
			c0.4,4.2,1,8.4,1.9,12.5c2.2,10.4,5.8,20.4,10.4,30c0.3,0.6,0.6,0.9,1.3,0.8c1.8-0.1,3.5-0.1,5.3-0.3c3.1-0.2,6.2-0.4,9.3-0.9
			c4.9-0.8,9.9-1.8,14.8-2.9c2.6-0.6,5.1-1.4,7.6-2.1C57,168.1,57,168,57,168c-5.2-6.6-8.9-14-11.7-22c-2.6-7.5-4.1-15.2-4.4-23.2
			c-0.1-2.7-0.1-5.4,0.2-8c0.4-4,0.8-8.1,1.7-12.1c3.6-16.2,11.6-29.9,23.6-41.3c8-7.5,17.2-13.2,27.5-17.1
			c9.1-3.4,18.6-5.2,28.3-5.1c2,0,4.1,0,6.1,0.2c3.6,0.4,7.1,0.7,10.7,1.3c7.3,1.4,14.2,3.9,20.8,7.3c10.1,5.2,18.7,12.3,26,20.9
			c6.4,7.6,11.5,16,14.4,25.7c2,6.6,3.5,13.2,4,20c0.2,3.2,0.2,6.5,0,9.8c-0.2,3.3-0.5,6.6-1.1,9.9c-1.6,8.7-4.7,16.9-9.1,24.5
			C192.1,162.1,190,165.2,188,168.4z M72.5,215c0-7.2,0-14.3,0-21.3c-2.2-0.2-4.3-0.3-6.4-0.5c-3.3-0.3-6.5-0.6-9.8-1.1
			c-3.8-0.5-7.7-1.2-11.5-1.8c-2.9-0.5-5.8-1.2-8.7-1.8c-0.7-0.1-1.2-0.5-1.1-1.3c0.2-0.9,0.9-0.8,1.6-0.6c1.2,0.3,2.4,0.6,3.6,0.8
			c4.2,0.8,8.4,1.6,12.6,2.2c3.1,0.5,6.2,0.8,9.3,1.1c1.9,0.2,3.8,0.4,5.8,0.6c1.5,0.1,3,0.2,4.6,0.2c0-1.5,0.1-2.9,0-4.3
			c-0.2-2,0.7-3.7,1.1-5.5c0-0.3,0.4-0.5,0.6-0.7c4.3-3.5,9.1-6.2,14.3-8c2.6-1,5.3-1.7,8-2.5c0,0,0-0.1-0.1-0.1
			c-0.2-0.1-0.4-0.2-0.7-0.3c-3-1.1-6.1-1.7-9.2-2.1c-4.1-0.6-8.2-0.6-12.2,0.2c-4.7,0.9-9.4,2.1-14.1,3.5
			c-7.7,2.2-15.5,4.3-23.5,5.4c-5.1,0.7-10.2,1.3-15.3,1.7c-4.8,0.4-9.7,0.5-14.5,0.7c-0.2,0-0.4,0-0.8,0.1c0.5,0.5,0.9,0.9,1.3,1.2
			c2.8,2.2,5.5,4.5,8.4,6.6c8.4,6.1,17.4,11.4,26.7,16.2c7.6,3.9,15.3,7.6,23.5,10.3C68.1,214.2,70.2,214.9,72.5,215z M172.7,214.9
			c0.5,0,0.9,0.1,1.3,0c1.8-0.4,3.6-0.8,5.3-1.4c8.8-2.9,17.2-7,25.4-11.3c10.1-5.3,19.9-11.2,28.9-18.3c1.8-1.4,3.4-2.9,5.4-4.5
			c-0.8-0.1-1.2-0.2-1.6-0.2c-2.6-0.1-5.2-0.2-7.8-0.2c-1.2,0-2.5-0.1-3.7-0.2c-4.1-0.4-8.2-0.7-12.3-1.2c-3.5-0.4-7-0.9-10.5-1.5
			c-6.7-1.2-13.3-3.1-19.9-5.1c-7.4-2.3-15-4.1-22.9-3.2c-2.9,0.3-5.8,1-8.7,1.6c-1,0.2-2,0.7-3,1c0.5,0.3,0.9,0.4,1.3,0.5
			c7.2,1.8,13.9,4.7,19.9,9.1c0.7,0.5,1.6,0.9,1.8,1.6c0.6,1.6,0.9,3.2,1.1,4.9c0.2,1.6,0,3.3,0,5c2.6-0.2,5-0.2,7.4-0.5
			c3.9-0.4,7.9-0.9,11.8-1.4c4.3-0.6,8.5-1.4,12.8-2.2c1.3-0.2,2.7-0.6,4-0.9c0.6-0.1,1.3-0.1,1.5,0.6c0.2,0.7-0.3,1-0.9,1.3
			c-0.1,0-0.3,0.1-0.4,0.1c-4.5,0.8-8.9,1.7-13.4,2.5c-3,0.5-6,0.9-9.1,1.3c-3.1,0.4-6.2,0.7-9.3,1c-1.4,0.1-2.9,0.2-4.4,0.3
			C172.7,200.8,172.7,207.8,172.7,214.9z M83.1,223.6c12.1-5.4,24.3-6.8,36.9-2.4c0-0.5,0-0.9,0-1.3c0-6.2,0-12.3,0-18.5
			c0-7,0-14,0-21.1c0-0.4-0.2-1-0.5-1.2c-6.1-4.7-13.1-6-20.6-4.9c-5.3,0.8-10.2,2.7-14.9,5.1c-0.7,0.4-1,0.8-1,1.6
			c0,13.8,0,27.6,0,41.4C83.1,222.7,83.1,223.1,83.1,223.6z M162.1,223.7c0-0.3,0-0.4,0-0.6c0-14.1,0-28.2,0-42.3
			c0-0.6-0.2-0.9-0.8-1.1c-3.2-1.3-6.4-2.8-9.7-3.9c-4.5-1.5-9.2-2-13.9-1.4c-4.2,0.6-8,2.2-11.5,4.6c-0.7,0.5-1,1-1,1.9
			c0,13.1,0,26.3,0,39.4c0,0.3,0,0.7,0,1.1C137.9,216.9,150.1,218.4,162.1,223.7z M124.4,138.8c1.1-0.6,2.1-1.4,3.3-1.9
			c1.9-0.8,3.6,0,4,1.8c0.3,1.4-0.5,2.5-1.5,3.2c-1.9,1.4-3.9,2.6-5.9,3.8c-1.1,0.6-1.9,1.3-2.1,2.5c-0.4,1.7-0.8,3.4-0.8,5.2
			c-0.1,2.6,0,5.1,0.2,7.7c0.1,1.7,0.5,3.3,2.3,4c1.8,0.7,3.1-0.2,4.4-1.3c0.8-0.7,1.6-1.4,2.4-1.9c1.3-0.9,2.8-1.5,4.5-1.1
			c1.8,0.5,3.2,1.6,4.3,3.1c1.8,2.3,3.9,3.7,7,3.1c5.3-1.1,7.9-5.2,8.1-10.4c0.1-2.4-0.1-4.9,0.9-7.3c-0.4-0.1-0.7-0.3-1-0.3
			c-2.3-0.2-4.6-0.5-6.9-0.6c-3.8-0.1-7.4-1.1-10.7-2.8c-0.9-0.5-1.8-1.3-2.4-2.1c-0.9-1.1-0.3-2.9,1-3.3c1.7-0.5,3.4-0.7,5.1,0.2
			c1.6,1,3.3,1.9,5,2.8c0.8,0.4,1.8,0.7,2.7,0.8c1.4,0.1,2.2-1.2,1.5-2.3c-0.2-0.3-0.7-0.6-1.1-0.8c-1.5-0.5-3-1-4.5-1.5
			c-2.6-1-3.2-3.9-1-5.5c1-0.7,2.4-1.1,3.6-1.3c2.1-0.4,4.3-0.4,6.4-0.7c2.3-0.3,3.1-1.3,3-3.6c0-0.9-0.1-1.9-0.2-2.8
			c-0.2-1.3-0.4-2.5-0.6-3.7c-0.8-0.1-1.5-0.2-2.1-0.3c-2.8-0.2-5.3-3.5-4.6-6.3c0.3-1.3,0.7-2.7,1-4c0.4-1.9,0.9-3.8-0.1-5.7
			c-1.6-2.9-3.8-5.1-6.8-6.4c-0.6-0.3-1.3-0.4-2-0.5c-0.7-0.1-1.1,0.4-0.9,1c0.2,0.6,0.5,1.2,0.8,1.8c0.7,1.3,1.5,2.6,2,4
			c0.7,2.1-0.5,3.5-2.7,3c-1.1-0.2-2.1-0.7-3.2-1.1c-0.7-0.3-1.4-0.8-2.2-0.9c-2.8-0.2-5.6-0.2-8.4-0.2c-0.6,0-1.2,0.3-1.7,0.6
			c-0.6,0.3-0.8,0.9-0.2,1.4c0.8,0.7,1.6,1.4,2.4,2c1.3,1,2.1,2.2,1.9,3.9c-0.1,0.7-0.2,1.3-0.3,1.9c-0.3,1.4-0.2,2.6,0.7,3.8
			c0.5,0.6,0.8,1.4,1,2.1c0.8,3,0.4,5.9-0.8,8.7c-1,2.2-2.7,3.6-5.1,4c-1.4,0.2-2.8,0-4.2,0.1c-0.3,0-0.7,0.3-1,0.5
			c0,0.1,0.1,0.3,0.1,0.4c1.5,0,2.9,0,4.4,0c1.3,0,2,0.9,1.7,2.2C124.8,138,124.6,138.4,124.4,138.8z M80.4,121.6
			c-1.8,1.6-3.9,2.4-6.1,2.8c-3.2,0.7-5.5,2.5-6.8,5.5c-0.5,1.1-1.2,2.2-1.8,3.3c-1.1,1.9-2.8,3.1-4.9,3.5c-1,0.2-2.1,0.5-3.1,0.6
			c-2.7,0.3-5,1.2-5.3,4.4c-0.1,0.5-0.2,1-0.3,1.5c-0.2,2.4,0.5,3.4,2.8,3.9c1.5,0.3,3.1,0.5,4.6,0.6c3.8,0.3,6.9,1.6,8.7,5.3
			c0.9,1.9,1.9,3.7,2.9,5.5c1,1.8,2.4,2.6,4.5,2.6c2.5-0.1,4.9,0,7.4,0c0.4,0,0.8,0,1.2,0.1c3.2,0.8,6.4,1.7,9.7,2.4
			c1.9,0.4,3.9,0.9,5.9,0.3c2-0.6,3.8-2.4,4-4.1c0.2-1.7-1.1-3.5-3.3-4.3c-1.7-0.6-3.5-1.1-5.3-1.4c-3.8-0.6-6.4-2.6-7.7-6.2
			c-0.8-2.2-1.7-4.4-2.4-6.6c-1-3-1-6.1-1.1-9.2c0-0.8-0.2-1.6-0.6-2.2C81.5,127.5,79.9,124.9,80.4,121.6z M78.2,75.1
			c6-5.8,12.6-10.3,20.1-13.3c7.5-3.1,15.3-4.4,23.3-4.8c0-5.3,0-10.4,0-15.6c-21.1,0.4-39.2,8-54.2,22C71,67.4,74.6,71.2,78.2,75.1
			z M42.7,119c5.2,0,10.3,0,15.5,0c0.8,0,0.7-0.5,0.7-1c0.3-2.6,0.5-5.3,0.8-7.9c0.7-5.6,2.3-10.9,4.6-16c3.1-6.6,7.4-12.3,12-17.6
			c-3.7-3.7-7.3-7.4-11-11.1C53.4,75.6,42.6,100.9,42.7,119z M168.5,163.8c1.6,0.3,3.1,0.4,4.5,0.8c4,1,8.1,2,12.1,3
			c0.5,0.1,0.9,0.3,1.3-0.3c6.8-9.1,11.5-19.2,13.9-30.3c0.7-3.4,1.2-6.8,1.7-10.2c0.2-1.8,0.2-3.7,0.3-5.6c-5.4,0-10.6,0-15.9,0
			C186,137.6,180,151.7,168.5,163.8z M202.3,118.9c0.1-9.5-2.1-22.6-8.7-34.9c-3.7-6.9-8.3-13.1-13.7-18.8c-2.4,2.4-4.8,4.6-7.3,7.1
			c3.6,0.7,4.9,3.1,5.4,6.1c0.3,1.9,0.9,3.6,2.2,5.2c0.5,0.7,0.9,1.5,1.2,2.3c1.1,2.9,0.6,4.7-1.4,6.1c4.3,8.4,6.3,17.4,6.7,26.9
			C191.8,118.9,197,118.9,202.3,118.9z M109,234.1c-12.2,0-24.4,0-36.7,0c0-3,0-5.8,0-8.6c-0.3-0.1-0.6-0.2-0.8-0.3
			c-7.9-1.6-15.6-4-23.1-6.7c-0.7-0.2-1.3-0.6-0.9-1.4c0.3-0.8,1-0.8,1.7-0.5c1.1,0.4,2.2,0.9,3.3,1.3c6.5,2.4,13.2,4.3,20.1,5.5
			c0-1.4,0-2.7,0-4c-2-0.5-4-1-6-1.5c-6.7-1.9-13.1-4.7-19.4-7.7c-1.1-0.5-2.2-1.3-3.4-1.5c-2.9-0.4-5.9-0.4-8.9-0.7
			c-2.2-0.2-4.3-0.5-6.5-0.7c-2.4-0.3-4.9-0.7-7.5-1c5.4,4.7,10.8,9.1,16.6,13.1c9.7,6.7,20.1,12.1,31.3,15.7c6,1.9,12,3.2,18.2,3.9
			c3.5,0.4,6.9,0.8,10.4,0.4C101.8,238.7,105.6,237,109,234.1z M224.3,206c-2.7,0.4-5.1,0.7-7.5,1c-4,0.4-8,0.8-12,1.2
			c-2.1,0.2-4.1,0.4-6.1,1.4c-6.8,3.3-13.7,6.3-21,8.3c-1.6,0.5-3.3,0.8-4.9,1.2c0,1.4,0,2.7,0,3.9c0.4,0,0.7,0,1-0.1
			c0.8-0.2,1.7-0.3,2.5-0.5c6.8-1.5,13.4-3.5,19.9-6.1c0.7-0.3,1.3-0.1,1.6,0.6c0.3,0.7-0.1,1.1-0.8,1.4c-7,2.6-14.1,4.8-21.3,6.4
			c-2.7,0.6-2.7,0.6-2.7,3.4c0,2,0,3.9,0,6c-12.3,0-24.5,0-37,0c0.6,0.4,0.9,0.8,1.3,1c4.8,3.3,10.1,4.7,15.9,4
			c4.1-0.5,8.2-0.8,12.2-1.6c11.3-2.1,21.9-6.2,32-11.9c7.4-4.1,14.2-9,20.7-14.4C220.1,209.7,222.1,207.9,224.3,206z M140.5,106
			c-0.2-0.7-0.3-1.3-0.6-1.8c-0.7-1.5-1.5-3-2.3-4.5c-0.1-0.2-0.3-0.3-0.5-0.5c-6-4.2-12.7-5.3-19.8-3.9c-5,1-9.1,3.6-12.8,7
			c-1.6,1.4-2.9,3.1-4,5.1c0.5,0.1,0.9,0.2,1.3,0.3c1.5,0.2,2.4-0.7,3.2-1.8c2.7-3.5,6-6,10.5-6.6c1.5-0.2,3.1,0.4,3.7,2.3
			c1.1,3.3,0.7,6.2-1.6,8.8c-1,1.1-1.5,2.5-1.6,4c0,0.9,0.1,1.9,0,2.8c-0.1,0.7-0.4,1.5-0.9,2c-0.9,0.9-2.2,1.2-3.5,1
			c-0.8-0.1-1.6-0.4-2.4-0.6c-0.2-0.1-0.5,0-0.8,0c0,0.3-0.1,0.6,0,0.8c0.3,0.4,0.7,0.8,1.2,1.1c2.8,2,5,4.2,4.7,8
			c-0.2,2-1.6,3.9-3.5,4.5c-2.2,0.6-3.9,0.1-5.3-1.8c-0.6-0.8-1.2-1.6-1.7-2.5c-1.1-1.9-3.6-2.2-5.4-0.7c0.2,0.5,0.4,1.1,0.7,1.6
			c3.9,8,10.2,12.9,18.9,14.5c1.5,0.3,3.3,0.9,4.6-0.8c0.2-0.2,0.6-0.2,0.9-0.4c1.7-0.9,3.4-1.8,5-2.7c0.3-0.2,0.7-0.6,0.8-0.9
			c0.1-0.4,0.1-1,0-1.4c-0.1-0.2-0.8-0.2-1.2,0c-0.8,0.4-1.5,0.9-2.2,1.4c-1.3,1-2.8,1.5-4.4,1.4c-1-0.1-1.4-0.7-1-1.5
			c0.3-0.7,0.9-1.2,1.3-1.8c0.2-0.3,0.5-0.6,0.8-0.9c-0.2-0.1-0.2-0.1-0.3-0.1c-1.4,0-2.7,0-4.1,0c-0.9,0-1.3-0.3-1.6-1.2
			c-0.6-1.9,0.8-3.8,2.8-3.9c0.8,0,1.6,0,2.4-0.2c2.2-0.6,3.6-2.2,4.8-4c1-1.5,1.3-3.1,0.6-4.8c-0.2-0.4-0.3-0.9-0.5-1.4
			c-0.8-2.4-1.6-4.8-0.7-7.3c0.6-1.5-0.3-2.5-1.4-3.4c-1-0.8-2-1.5-2.8-2.5c-1-1.2-0.8-2.6,0.5-3.4c0.9-0.6,2-1.1,3-1.2
			c2.3-0.2,4.6-0.1,6.8-0.3c1.8-0.1,3.3,0.4,4.8,1.2c0.6,0.3,1.2,0.6,1.8,0.8C139.5,106.1,139.9,106,140.5,106z M155.7,66.2
			c0.2-0.3,0.3-0.6,0.4-0.8c1.2-1.8,2.8-3,5-3.2c2.9-0.3,4.7,1.4,5.3,4.6c0.2,1.2,0.6,2.4,1.3,3.4c1,1.6,2.5,1.6,3.8,0.3
			c0.9-0.9,1.7-1.7,2.6-2.6c1.4-1.4,2.8-2.8,4.2-4.2c-15.5-14.4-33.5-22.2-54.7-22.4c0,3.9,0,7.7,0,11.5c1.6-0.9,3.2-1.2,4.9-0.8
			c1,0.2,2.1,0.5,3,1.1c1.4,0.8,2.4,1.9,0.6,4.5C140.5,59.1,148.4,61.6,155.7,66.2z M121.6,59.2c-16.3,0.3-30.2,6.1-42,17.2
			c3.8,3.7,7.5,7.4,11.3,11c8.8-7.9,19-12.1,30.8-12.5C121.6,69.6,121.6,64.4,121.6,59.2z M89.1,89.2c-3.7-3.8-7.3-7.6-11-11.4
			C67,89.3,61.3,102.9,61,118.9c5.4,0,10.6,0,15.9,0C77.4,107.4,81.4,97.4,89.1,89.2z M163.7,139.8c1,0,1.9,0,2.7,0
			c1.4,0,2.6,1.1,2.7,2.4c0.1,1.3-1,2.4-2.4,2.6c-0.7,0.1-1.5,0.3-2.2,0.4c-2.5,0.5-4.5,2-6.5,3.5c-0.9,0.7-0.9,1.8-1.3,2.7
			c-0.2,0.6-0.1,1,0.4,1.5c2,1.9,4,3.9,6,5.9c1.2,1.2,2.5,2.4,3.8,3.7c11.1-11.7,17-25.4,17.5-41.5c-5.5,0-10.8,0-16.2,0
			C168,127.6,166.9,133.9,163.7,139.8z M58.8,121.1c-5.3,0-10.6,0-15.8,0c0.6,17.3,5.6,33.1,16.3,46.5c5.8-1.4,11.4-2.7,17.2-4
			c-0.4-0.1-0.8-0.3-1.1-0.3c-0.5-0.1-1,0-1.5-0.1c-2.3-0.4-3.7-2.1-4.8-3.9c-1.1-1.9-2-3.9-3-5.8c-0.9-1.7-2.4-2.9-4.3-3.3
			c-1.1-0.2-2.3-0.3-3.5-0.5c-1.8-0.3-3.6-0.5-5.2-1.1c-2.1-0.7-3-2.2-2.9-4.1c0.1-1.1,0.2-2.2,0.4-3.3c0.6-3.1,2.4-4.9,5.4-5.6
			c1.3-0.3,2.6-0.6,3.9-0.8c0.6-0.1,0.7-0.5,0.6-1c-0.3-1.4-0.6-2.8-0.8-4.3C59.3,126.8,59.1,124,58.8,121.1z M82.7,117.8
			c0.7-0.1,1.2-0.2,1.7-0.3c2.9-0.2,5.1,1.2,6.7,3.5c1.2,1.7,2.2,3.6,3.2,5.4c0.4,0.7,0.8,1.1,1.5,0.9c0.9-0.2,1.8-0.5,2.7-0.8
			c3.1-1.1,4.9-0.6,6.9,1.9c0.6,0.8,1.1,1.6,1.6,2.4c0.5,0.7,1,1.2,1.9,1.2c2.5,0,3.9-1.9,3.3-4.4c-0.6-2.5-2.4-3.9-4.5-5
			c-1.2-0.7-1.8-2.5-1.2-3.9c0.6-1.4,1.6-1.7,3.3-1.1c0.9,0.3,1.8,0.5,2.7,0.6c0.9,0.1,1.5-0.6,1.5-1.5c0-0.7,0-1.5,0-2.2
			c-0.2-2.4,0.8-4.4,2.4-6c1.4-1.4,1.7-5,0.8-6.6c-0.2-0.3-0.6-0.5-1-0.5c-2.3-0.1-4.4,0.6-6.2,2c-1.5,1.2-2.9,2.7-4.3,4.1
			c-2.4,2.5-6.2,2.8-8.5,0c-1.8-2.2-4.3-2.3-6.6-0.6c-0.8,0.6-1.3,1.4-2.1,2C85.7,111.1,84,114.2,82.7,117.8z M123.6,74.8
			c9.7,0.4,18.5,3.2,26.3,8.8c1.8-2.5,5.3-2.5,8.2,0.3c0.3-0.3,0.6-0.6,1-0.9c-2.2-1-3.4-2.6-4-4.7c-0.9-2.9-0.6-5.9,0.3-8.8
			c0.2-0.7,0.1-1.1-0.5-1.5c-4.2-2.6-8.8-4.6-13.6-6.1c-4.3-1.4-8.7-2.3-13.2-2.7c-1.5-0.1-3,0-4.5,0
			C123.6,64.4,123.6,69.5,123.6,74.8z M184.5,118.9c-0.2-2.6-0.2-5.1-0.6-7.6c-0.9-5.9-2.7-11.6-5.3-17.1c-0.6-1.3-1.2-2.3-2.7-2.9
			c-1.9-0.8-3.5-1.1-5.4-0.3c-1.4,0.6-2.7,0.3-3.9-0.4c-1-0.6-1.4-1.5-1-2.6c0.2-0.6,0.7-1.1,0.8-1.7c0.2-0.8,0.3-1.6,0.2-2.4
			c-0.2-0.8-1-0.6-1.7-0.6c-0.9,0-1.9,0-2.8,0c-0.3,0-0.7,0-0.9,0.2c-0.7,0.7-1.3,1.4-2,2.1c0.3,0.7,0.8,1.4,1.1,2.2
			c1.1,2.9,2.7,5.5,4.8,7.8c1.4,1.5,2.5,3.1,3.1,5.1c0.2,0.8,0,1.3-0.7,1.6c-0.4,0.2-0.8,0.3-1.2,0.4c-0.8,0.2-1.1,0.7-0.8,1.5
			c0.4,1.2,0.9,2.5,1.1,3.7c0.7,3.6,1.3,7.2,2,10.9C173.7,118.9,179,118.9,184.5,118.9z M117.9,234.3c-1.7-0.5-2.8,0.2-4,1.2
			c-1.5,1.4-3.2,2.7-4.9,3.8c-4.3,2.8-9.1,4-14.1,4.1c-2.4,0-4.9-0.2-7.3-0.6c-3.8-0.5-7.6-0.9-11.3-1.8c-5.1-1.3-10-3-15.1-4.5
			c-0.4-0.1-0.9-0.1-1.2,0c-2.7,1.3-5.4,2.6-8.1,4c0.3,0.2,0.7,0.5,1.2,0.8c4.8,2.8,9.9,4.5,15.3,5.9c7.1,1.8,14.3,3,21.6,2.8
			c2.4-0.1,4.8-0.3,7.2-0.6c4.1-0.5,8.1-1.7,11.7-3.9C113.3,242.8,116.2,239,117.9,234.3z M127.3,234.2c1.9,5.4,5.3,9.4,10.3,12
			c6.7,3.5,13.9,3.9,21.1,3.7c3.9-0.1,7.8-0.8,11.7-1.4c6.1-1,11.9-2.7,17.5-5.2c1.9-0.8,3.7-1.9,5.4-2.8c-2.8-1.4-5.5-2.8-8.3-4.1
			c-0.3-0.1-0.7-0.1-0.9,0c-1.7,0.6-3.4,1.2-5.1,1.8c-5.4,1.9-11,3.4-16.7,4.1c-2.6,0.3-5.3,0.6-7.9,0.9c-3.3,0.3-6.6,0.3-9.8-0.3
			c-5.3-1.1-9.8-3.7-13.6-7.5C129.9,234.2,128.8,233.9,127.3,234.2z M121.6,77.1c-9.2-0.6-24.1,5.4-29.3,11.9
			c3.7,3.7,7.4,7.4,11.2,11.1c5.3-4.2,11.1-7.3,18.1-7.2C121.6,87.5,121.6,82.3,121.6,77.1z M151.8,89.7c-0.2-0.4-0.5-1-0.8-1.5
			c-0.4-0.7-0.6-1.5-1.1-1.9c-3.8-3-7.9-5.4-12.5-7c-3.4-1.2-6.8-1.8-10.4-2.2c-1.2-0.1-2.3-0.1-3.5-0.2c0,5.3,0,10.5,0,15.8
			c6.5,0.4,9.3,1.8,12.5,3.4c1.2,0.6,2.1,1.2,3.6,0.4c1.3-0.7,2.7,0.1,4.1,0.5c0.3,0.1,0.8,0.2,1,0
			C147.1,94.6,149.4,92.2,151.8,89.7z M92.7,151.4c1.3,0.3,2.4,0.7,3.6,0.9c2.3,0.6,4.7,1,6.7,2.4c1.6,1.1,2.5,2.6,2.7,4.5
			c0,0.4,0.5,0.9,0.8,1c2.1,0.8,4.3,1.5,6.5,2.1c2.2,0.6,4.5,1,6.9,0.8c-0.9-5.3-1.5-10.5,0.4-15.8c-6.1-0.8-11.8-2.8-16.3-7.3
			C100.2,143.9,96.5,147.6,92.7,151.4z M82.5,121c-0.4,2.2-0.1,4.1,1.2,5.8c0.4,0.5,0.7,1,1,1.6c0.7,1.2,1.2,2.4,1.1,3.8
			c-0.3,4.8,1.1,9.2,2.7,13.6c0.6,1.5,1.2,3,2.5,4.1c3.8-3.7,7.6-7.4,11.3-11.1c-2.6-3-4.5-6.1-5.9-9.6c-1.4,0.2-2.7-0.1-3.5-1.3
			c-0.4-0.6-0.8-1.3-1.2-2c-0.8-1.3-1.6-2.7-2.4-4c-0.3-0.4-0.8-0.8-1.2-0.9C86.4,121,84.5,121,82.5,121z M156.4,74.2
			c0.1,0.8,0.1,1.7,0.3,2.5c0.7,3.4,2.7,5.1,6.7,4.7c0.7-0.1,1.3-0.1,2-0.1c2.8,0.2,4.1,2.1,3.4,4.8c-0.2,0.7-0.7,1.4-1,2
			c-0.4,0.7-0.2,1.1,0.6,1.1c0.7,0,1.5,0,2.1-0.2c1.7-0.5,3.4-0.6,5.1,0.2c0.8,0.4,1.7,0.7,2.5,0.9c1.2,0.4,2.1-0.3,1.8-1.5
			c-0.4-1.4-0.9-2.9-1.7-4.1c-1.2-1.8-2-3.7-2.3-5.8c-0.3-2.3-1.4-3.9-3.7-4.3c-0.9-0.2-1.9-0.5-2.8-0.7c-2-0.4-3.4-1.5-4-3.5
			c-0.4-1.1-0.7-2.2-0.8-3.3c-0.3-2-1.2-2.6-3.5-2.4c-1.7,0.1-2.3,0.8-2.7,2.5c-0.1,0.6-0.3,1.1-0.5,1.7
			C157.2,70.4,156.2,72.2,156.4,74.2z M166.6,119c-0.4-2.6-0.6-5-1.1-7.4c-0.4-2-1-3.9-1.5-5.9c-0.1-0.3-0.6-0.7-0.8-0.6
			c-1.3,0.2-2-0.4-2.5-1.4c-0.4-0.7-0.6-1.6-0.6-2.4c0-1.3-0.3-2.5-1.1-3.5c-1.8-2.2-3.8-4.2-5.5-6.1c-2.5,2.3-4.8,4.6-7,6.6
			c1,1.1,1.9,2.1,2.8,3.1c2.7,3,3.5,6.3,2.3,10.2c-0.4,1.2-0.7,2.4-1,3.6c-0.5,2,0.9,3.7,2.9,3.7c1.1,0,2.2,0,3.2,0
			C159.9,119,163.1,119,166.6,119z M78.8,118.9c1.4,0.1,1.5,0,2-1.7c1.7-5.2,4.9-9.3,9.4-12.3c2.7-1.8,5-1.7,7.6,0.3
			c0.4,0.3,0.8,0.6,1.1,0.8c1.1-1.6,2.2-3,3.3-4.6c-3.8-3.7-7.6-7.4-11.3-11.1C85.2,96.8,79.7,104,78.8,118.9z M117.7,224.6
			c-4.1-1.6-8.5-2.1-12.9-2.2c-4.5,0-8.9,0.6-13.2,1.9c-4.2,1.2-8.3,3-12.1,5.5c0.3,0.1,0.3,0.1,0.4,0.1c10.9,0,21.9,0,32.8,0
			c0.3,0,0.7-0.3,1-0.5C115,227.9,116.3,226.3,117.7,224.6z M156.4,147.2c-2-0.5-1.6-2.1-1.6-3.5c0-0.1,0-0.1,0-0.2
			c0-2.2,1.2-3.4,3.4-3.4c0.6,0,1.3-0.1,1.9,0c1.1,0.2,1.6-0.3,2-1.3c1.8-3.8,2.9-7.7,3.7-11.8c0.3-1.9,0.4-3.9,0.6-5.9
			c-3.2,0-6.1,0-9.1,0c0,0.2-0.1,0.3-0.1,0.4c0.2,2.1,0.5,4.1,0.7,6.2c0.2,1.5,0.1,3-1.1,4.1c-1.3,1.3-2.9,1.8-4.6,2
			c-1.7,0.1-3.3,0.3-4.9,0.4c-1.8,0.1-2,1.9-3.1,2.9c1.8,0.6,3.5,1.1,5.2,1.7c2.3,0.9,3.1,3.5,1.7,5.4c-0.4,0.5-1,0.9-1.5,1.4
			c0.2,0.2,0.3,0.5,0.5,0.6C152.2,146.5,154.3,146.9,156.4,147.2z M165.7,230.2c-7.9-6.8-30.6-9.9-37.7-5.4c1.3,1.5,2.7,3,3.9,4.6
			c0.5,0.6,0.9,0.8,1.6,0.8c10.4,0,20.7,0,31.1,0C164.9,230.2,165.2,230.2,165.7,230.2z M121.7,175.9c0-3.2,0-6.3,0-9.4
			c0-0.4-0.6-0.9-1-1c-0.7-0.2-1.6-0.1-2.3-0.2c-4.2-0.5-8.2-1.4-12.2-2.9c-0.6-0.2-1-0.1-1.4,0.4c-0.5,0.7-1.1,1.3-1.7,1.8
			c-1.6,1.4-3.7,1.7-5.6,1.8c2.1,1.2,4.3,2.4,6.6,3.6c0.2,0.1,0.4,0.1,0.6,0.1c0.9,0.1,1.8,0.1,2.7,0.2
			C112.5,170.9,117.3,172.6,121.7,175.9z M165.9,182.4c0,14.5,0,28.9,0,43.2c1,0.5,1.9,1,2.9,1.6c0-2.2,0-4.3,0-6.5
			c0-11.8,0-23.6,0-35.3c0-0.4-0.1-0.9-0.3-1.1C167.7,183.6,166.8,183.1,165.9,182.4z M76.4,227.1c0.7-0.4,1.3-0.9,1.8-1.1
			c0.7-0.3,0.9-0.7,0.9-1.5c0-13.7,0-27.4,0-41.2c0-0.3,0-0.6-0.1-1.1c-0.5,0.4-0.9,0.8-1.4,1c-1.1,0.5-1.3,1.4-1.3,2.6
			c0,13.2,0,26.5,0,39.7C76.4,226.1,76.4,226.5,76.4,227.1z M142.7,168.9c-0.7-0.4-1.5-0.8-2.1-1.3c-1.2-1-2.2-2.2-3.3-3.3
			c-0.7-0.8-1.4-0.9-2.4-0.6c-1.6,0.4-3.2,0.8-4.8,1.2c-0.3,0.1-0.6,0.2-0.9,0.5c-1.5,1.6-3.4,2-5.5,1.8c0,2.8,0,5.6,0,8.5
			c0.3-0.2,0.6-0.4,0.8-0.5c4.5-3.2,9.5-4.7,14.9-5C140.8,170.1,141.8,169.7,142.7,168.9z M76.8,121.3c0-0.1-0.1-0.2-0.1-0.2
			c-5.2,0-10.4,0-15.8,0c0.2,4.3,0.4,8.6,1.7,12.9c0.5-0.6,0.9-0.9,1.1-1.4c0.8-1.4,1.5-2.7,2.2-4.1c1.3-2.3,2.8-4.4,5.4-5.3
			c1.4-0.5,2.8-0.8,4.2-1.3C76.1,121.8,76.5,121.5,76.8,121.3z M166.1,100.2c-0.4-0.5-0.8-1.4-1.4-2c-2.8-3.1-5.3-6.5-6.6-10.5
			c-0.3-0.8-0.8-1.5-1.3-2.1c-1-1.2-2.3-1.9-3.9-1.7c-0.5,0.1-1.3,0.2-1,0.9c0.6,1.6,1.2,3.4,2.2,4.7c1.8,2.4,3.9,4.5,5.8,6.8
			c1.1,1.2,1.9,2.6,2.1,4.2c0.1,0.7,0.1,1.4,0.2,2c0.2,1,0.5,1,1.2,0.3C164.2,101.9,165.1,101.1,166.1,100.2z M153.6,164.6
			c3.9-0.4,7.7-0.8,11.5-1.2c-2.8-2.7-5.6-5.4-8.5-8.3C156.3,158.7,155.9,161.9,153.6,164.6z M156.7,143.9c-0.1,0.7,0,1.3,0.8,1.7
			c0.8,0.4,1.5,0.2,2.2-0.4c1.3-1,2.7-1.7,4.4-1.9c0.6-0.1,1.3-0.2,1.9-0.4c0.4-0.1,0.7-0.5,1.1-0.7c-0.4-0.2-0.9-0.5-1.3-0.5
			c-1.7,0-3.4,0.1-5.1,0.2c-0.7,0-1.4-0.1-2.1,0C157.1,142.1,156.5,142.6,156.7,143.9z M127.5,230.1c-3-4.1-6.5-3.9-9.3,0
			C121.3,230.1,124.4,230.1,127.5,230.1z M137.2,143.4c3.1,1.7,6.4,2.4,9.8,2.7c-0.1-0.3-0.3-0.4-0.5-0.5c-1.8-0.9-3.7-1.7-5.4-2.7
			c-1.1-0.7-2.1-1.1-3.1,0.1C137.8,143,137.5,143.1,137.2,143.4z M125.2,54.3c1.6,1,3.1,1.9,4.8,1.9c0.3,0,0.6-0.3,1-0.5
			c-0.2-0.3-0.3-0.7-0.6-0.9C128.9,54,127.2,53.7,125.2,54.3z M80.1,163.6c1.9,0.1,3.7,0.2,5.5,0.2
			C82.3,162.9,80.8,162.8,80.1,163.6z M125.5,57c-0.7-0.5-1.3-0.9-1.9-1.3c0,0.5,0,0.9,0,1.3C124.2,57,124.7,57,125.5,57z"/>
		<path class="st1" d="M133.3,291.1c-2.1-5.8-4.1-11.5-6.2-17.3c-0.5-1.3-0.9-2.6-2.6-2.8c-0.1,0-0.2-0.4-0.3-0.7c2.6,0,5,0,7.5,0
			c0.1,0.1,0.1,0.2,0.2,0.3c-0.3,0.2-0.5,0.4-0.8,0.5c-1.1,0.2-1.4,0.6-1,1.6c1.4,3.9,2.9,7.7,4.5,11.9c0.5-1.3,0.9-2.4,1.3-3.5
			c0.3-0.7,0.4-1.6,0.9-2.2c1.6-2.5,0.4-4.6-0.7-6.7c-0.3-0.5-1.1-0.7-1.6-1.1c-0.2-0.2-0.5-0.3-0.7-0.4c0-0.1,0.1-0.2,0.1-0.3
			c2.7,0,5.4,0,8.2,0c0,0.1,0.1,0.2,0.1,0.3c-0.3,0.1-0.5,0.4-0.8,0.4c-1.7,0.2-1.9,0.5-1.3,2.2c1.4,3.7,2.8,7.4,4.4,11.4
			c0.2-0.6,0.4-0.9,0.5-1.3c1.2-3.3,2.4-6.7,3.6-10c0.5-1.5,0.1-1.9-1.4-2.2c-0.2-0.1-0.4-0.3-0.7-0.5c0-0.1,0.1-0.2,0.1-0.2
			c2,0,4.1,0,6.1,0c0.1,0.1,0.1,0.1,0.2,0.2c-0.2,0.2-0.5,0.4-0.7,0.6c-0.5,0.4-1.4,0.8-1.6,1.3c-2.2,6.2-4.4,12.5-6.5,18.7
			c-0.2,0-0.4,0-0.6,0c-1.5-4.2-3.1-8.4-4.6-12.6c-0.1,0-0.2,0-0.3,0c-1.5,4.2-3,8.4-4.4,12.6C133.7,291.1,133.5,291.1,133.3,291.1z
			"/>
		<path class="st1" d="M78.1,291.1c-1.4-0.6-3-1.1-4.2-1.9c-2.6-1.7-3.8-4.5-4-7.5c-0.3-3.4,0.4-6.5,2.9-9c2.8-2.8,6.2-3.5,9.9-2.5
			c3.8,1,6.2,3.7,6.9,7.6c0.7,3.3,0.3,6.4-1.6,9.2c-1.5,2.2-3.6,3.5-6.2,4c-0.1,0-0.2,0.1-0.4,0.2C80.3,291.1,79.2,291.1,78.1,291.1
			z M73.5,280.4c-0.1,2,0.2,4,1.1,5.9c1,2.2,2.7,3.5,5.2,3.6c2.5,0,4.3-1.2,5.2-3.4c0.6-1.3,0.9-2.7,1.1-4.1c0.4-2.7,0.2-5.3-1-7.8
			c-1.1-2.3-2.9-3.6-5.5-3.5c-2.5,0.1-4.1,1.5-5.1,3.7C73.7,276.5,73.5,278.4,73.5,280.4z"/>
		<path class="st1" d="M57.9,291.1c-2.1-2.7-4.3-5.4-6.4-8.2c-2.1-2.7-4.3-5.4-6.4-8.1c-0.1-0.1-0.2-0.3-0.4-0.6
			c0,0.6-0.1,0.9-0.1,1.2c0,3.6,0,7.2,0,10.8c0,0.7,0.1,1.4,0.2,2.1c0.2,1,0.9,1.5,1.9,1.6c0.3,0,0.5,0.3,0.8,0.4
			c0,0.1-0.1,0.2-0.1,0.3c-2.4,0-4.8,0-7.5,0c0.4-0.4,0.6-0.7,0.8-0.7c1.6-0.1,2.4-0.7,2.4-3c0.1-4.4,0-8.9,0-13.3
			c0-1.2-0.9-2.3-2.2-2.5c-0.3,0-0.5-0.3-0.8-0.4c0-0.1,0.1-0.3,0.1-0.4c1.7,0,3.3,0,5,0c0.3,0,0.7,0.4,0.9,0.7
			c3.4,4.3,6.9,8.7,10.3,13.1c0.1,0.2,0.3,0.3,0.6,0.7c0-1,0-1.9,0-2.7c0-2.7,0-5.3,0-8c0-2.1-0.4-2.6-2.4-3
			c-0.2-0.1-0.4-0.3-0.8-0.7c2.8,0,5.1,0,7.7,0c-0.2,0.3-0.3,0.7-0.5,0.7c-2.2,0.8-2.5,1.2-2.5,3.7c0,5.5,0,10.9,0,16.4
			C58.3,291.1,58.1,291.1,57.9,291.1z"/>
		<path class="st1" d="M117.8,290.6c-1.4,0-2.8,0-4.3,0c-0.4,0-0.8-0.3-1.1-0.6c-2-2.6-4.1-5.2-6-7.8c-0.6-0.8-1.2-1.1-2.3-0.8
			c0,2.3-0.1,4.7,0,7c0,1.1,0.9,1.3,1.8,1.5c0.3,0,0.6,0.3,0.9,0.4c0,0.1-0.1,0.2-0.1,0.3c-2.8,0-5.6,0-8.4,0
			c-0.1-0.1-0.1-0.2-0.2-0.2c0.2-0.2,0.4-0.5,0.7-0.5c1.5-0.3,1.9-0.6,1.9-2.2c0-4.8,0-9.6,0-14.4c0-1.6-0.3-2-1.9-2.3
			c-0.3,0-0.5-0.3-0.7-0.5c0.1-0.2,0.1-0.3,0.2-0.5c4,0.2,8.1,0.1,12.1,0.7c3.3,0.5,4.8,3.4,3.9,6.5c-0.6,2-2.3,2.9-4.1,3.4
			c-0.2,0.1-0.5,0.1-0.7,0.2c-0.1,0-0.2,0.1-0.3,0.2c2.1,2.6,4.2,5.3,6.4,7.8c0.4,0.5,1.2,0.7,1.7,1c0.2,0.1,0.5,0.3,0.7,0.5
			C117.9,290.4,117.9,290.5,117.8,290.6z M104.2,280.2c1.7-0.4,3.2-0.6,4.7-1c1.5-0.5,2.1-1.8,2.2-3.3c0.1-1.6-0.4-3.1-1.9-3.7
			c-1.2-0.5-2.7-0.5-4-0.6c-0.3,0-0.9,0.5-0.9,0.7C104.1,274.8,104.2,277.4,104.2,280.2z"/>
		<path class="st1" d="M179.9,290.6c-2.8,0-5.4,0-7.9,0c0-0.1-0.1-0.2-0.1-0.3c0.3-0.2,0.6-0.4,0.9-0.5c1.2-0.2,1.6-0.6,1.2-1.7
			c-0.4-1.3-1-2.5-1.5-3.7c-0.1-0.2-0.5-0.4-0.7-0.4c-2.3,0-4.5,0-6.8,0c-0.2,0-0.6,0.2-0.7,0.4c-0.5,1.2-1,2.4-1.3,3.6
			c-0.4,1.2,0,1.6,1.2,1.8c0.3,0,0.5,0.3,0.7,0.5c-0.1,0.1-0.1,0.2-0.2,0.3c-2,0-4,0-6.2,0c0.2-0.4,0.4-0.7,0.5-0.7
			c1.2-0.1,1.7-1.1,2.1-2c1.1-2.3,2.1-4.7,3.1-7.1c1.4-3.4,2.8-6.8,4.3-10.2c0.1-0.3,0.4-0.5,0.7-0.8c0.3,0.3,0.6,0.5,0.7,0.8
			c2.4,5.6,4.8,11.1,7.3,16.7c0.5,1.1,0.8,2.4,2.4,2.6C179.7,289.9,179.8,290.3,179.9,290.6z M171.7,282.5c-1.1-2.7-2.2-5.2-3.4-8
			c-1.2,2.8-2.2,5.4-3.3,8C167.3,282.5,169.4,282.5,171.7,282.5z"/>
		<path class="st1" d="M184.8,270.3c3.1,0,5.9,0,8.8,0c0.1,0.7,0.1,0.7-0.6,0.7c-1.5,0.1-1.8,0.6-1,1.9c1.4,2.3,2.9,4.5,4.5,6.9
			c1.5-2.5,3-4.8,4.4-7.2c0.6-0.9,0.2-1.5-0.9-1.6c-0.4,0-1.1,0.1-0.9-0.8c2.2,0,4.5,0,7,0c-0.3,0.3-0.4,0.7-0.6,0.7
			c-1.4,0.2-2.3,1.2-3,2.2c-1.7,2.5-3.4,5.1-5.1,7.7c-0.2,0.3-0.3,0.8-0.3,1.2c0,1.8,0,3.6,0,5.4c0,1.7,0.5,2.2,2.2,2.3
			c0.5,0,1.1-0.1,0.8,0.8c-3,0-5.9,0-8.9,0c-0.2,0-0.3-0.2-0.5-0.3c0.2-0.1,0.3-0.4,0.5-0.4c2.6-0.6,2.6-0.6,2.6-3.3
			c0-0.6-0.1-1.2,0-1.8c0.3-2.3-0.4-4.2-1.8-6c-1.6-2-2.9-4.1-4.4-6.2c-0.6-0.8-1.2-1.5-2.3-1.6C185.3,271,185.2,270.6,184.8,270.3z
			"/>
		<path class="st1" d="M97.2,35.7c0.3-0.1,0.5-0.2,0.8-0.3c1.2-0.4,1.6-1,1.4-2.3c-0.8-4.7-1.7-9.5-2.5-14.2
			c-0.3-1.6-0.7-1.9-2.4-1.9c-0.3,0-0.5-0.3-0.8-0.4c0-0.1,0.1-0.2,0.1-0.3c5.3-0.9,10.6-1.9,15.9-2.9c0.3,1.5,0.6,2.9,0.9,4.3
			c-0.6,0.5-0.9,0.3-1.2-0.3c-0.8-1.8-1.6-2.2-3.6-1.8c-1.7,0.3-3.5,0.6-5.2,0.9c-0.6,0.1-0.9,0.3-0.7,1c0.4,2.2,0.8,4.4,1.1,6.7
			c1.8-0.4,3.6-0.7,5.3-1c1.5-0.4,1.9-0.9,2-2.4c0-0.3,0.3-0.6,0.4-0.9c0.2,0.3,0.5,0.5,0.6,0.8c0.4,1.9,0.7,3.7,1,5.6
			c0,0.2-0.2,0.5-0.2,0.8c-0.2-0.1-0.5-0.1-0.6-0.3c-1.4-2.3-1.4-2.3-4-1.9c-1.3,0.2-2.6,0.5-4.1,0.7c0.2,1.5,0.5,3.1,0.8,4.6
			c0.2,0.9,0.3,1.9,0.6,2.8c0.1,0.3,0.6,0.8,0.8,0.8c2.2-0.4,4.5-0.7,6.6-1.4c1.6-0.5,2.3-2,2.7-3.6c0.2-0.6,0.4-0.8,1.1-0.6
			c-0.1,1.5-0.3,3.1-0.4,4.7c0,0.6-0.4,0.8-1,0.9c-4.9,0.9-9.8,1.7-14.7,2.6c-0.3,0-0.6-0.1-0.9-0.2C97.1,35.9,97.1,35.8,97.2,35.7z
			"/>
		<path class="st1" d="M210.4,68.6c-2,1.3-3.9,2.6-5.9,3.8c-0.7-0.4-0.6-0.7-0.1-1.2c1.3-1.3,1.3-1.8,0.4-3.4
			c-0.8-1.4-1.8-2.8-2.7-4.3c-0.7,0.4-1.3,0.8-1.9,1.2c-1.5,1-2.9,1.9-4.4,2.9c-0.5,0.3-0.7,0.7-0.3,1.3c1.1,1.7,2.2,3.4,3.4,5
			c1.2,1.6,2.9,1.9,4.8,1.6c0.7-0.1,0.9,0.1,1.1,0.8c-1.6,0.5-3.1,1.1-4.7,1.5c-0.2,0.1-0.7-0.2-0.8-0.4c-2.8-4.3-5.6-8.6-8.3-12.9
			c-0.1-0.2-0.1-0.5-0.1-0.7c0.3,0.1,0.6,0.1,0.7,0.3c1.3,1.3,1.6,1.3,3.1,0.4c3.9-2.5,7.8-5,11.6-7.6c1.5-1,1.6-1.4,1-3.1
			c-0.1-0.3,0-0.6,0-0.9c0.1,0,0.2,0,0.3,0c2.9,4.6,5.9,9.2,8.9,13.8c-1.3,0.9-2.5,1.7-3.7,2.5c-0.6-0.4-0.6-0.7-0.1-1.2
			c1.3-1.3,1.4-2.1,0.5-3.7c-0.9-1.6-2-3.2-3-4.8c-0.4-0.7-0.9-0.7-1.5-0.3c-1.8,1.2-3.6,2.4-5.5,3.6c1.1,1.6,2.1,3.3,3.3,4.9
			c0.7,1,1.7,1,2.8,0.4C209.9,67.8,210.3,67.9,210.4,68.6z"/>
		<path class="st1" d="M148.6,15.3c-0.2,2.3-0.4,4.4-0.5,6.5c-0.9,0.1-0.9,0.1-1-0.8c-0.2-2.7-2-4.8-4.5-5.3c-1.1-0.2-2,0.1-2.7,0.9
			c-0.7,0.7-0.9,1.7-0.5,2.7c0.6,1.7,2,2.6,3.1,3.8c1.2,1.2,2.5,2.3,3.5,3.6c1.5,2,1.5,4.4,0.3,6.3c-1.2,1.9-4,3-6.1,2.4
			c-1.4-0.4-2.8-1-4.1-1.6c-0.9-0.4-1.6-0.6-2.2,0.7c-0.3-0.5-0.6-0.8-0.6-1.1c0.1-2,0.2-3.9,0.5-6.1c0.2,0.2,0.6,0.4,0.7,0.7
			c0.6,1.4,1.1,2.8,1.9,4.1c1,1.5,2.6,2.1,4.4,1.9c2.4-0.2,3.8-3.2,2.3-5.2c-1.2-1.6-2.8-3-4.3-4.4c-1.3-1.3-2.6-2.6-2.7-4.6
			c-0.3-3.8,2.7-6.3,6.3-5.7c1.1,0.2,2.2,0.9,3.2,1.4c0.8,0.4,1.5,0.9,2.1-0.1C147.9,15.3,148.3,15.4,148.6,15.3z"/>
		<path class="st1" d="M74.3,46.7c1.9-1.8,1.9-2.1-0.1-3.5c-0.3-0.2-0.6-0.4-0.9-0.5c-2-1.2-1.9-1.2-3.8,0.1
			c-1.3,0.9-2.6,1.8-3.9,2.7c-0.5,0.3-0.7,0.6-0.5,1.3c0.3,0.8,0.4,1.7,0.6,2.6c0.5,2,1,2.2,2.8,1.2c0.5,0.4,0.4,0.6-0.1,1
			c-1.5,1-3,2.1-4.6,3.2c-0.1-0.3-0.3-0.7-0.2-0.8c1.2-1,0.8-2.4,0.6-3.6c-1.1-5.6-2.3-11.1-3.4-16.7c-0.1-0.4-0.2-0.9-0.2-1.3
			c0-0.3,0.1-0.6,0.2-0.9c0.3,0.1,0.6,0.1,0.8,0.2c4.2,2.6,8.3,5.2,12.5,7.7c1.3,0.8,2.5,1.6,3.8,2.3c0.8,0.5,1.6,0.9,2.6,0.4
			c0.2-0.1,0.5,0.1,1,0.3c-2.3,1.6-4.3,3-6.4,4.4C75.1,46.9,74.8,46.8,74.3,46.7z M62.8,35.9c0.6,3,1.2,5.7,1.8,8.6
			c1.9-1.3,3.6-2.6,5.5-3.9C67.7,39,65.4,37.5,62.8,35.9z"/>
		<path class="st1" d="M174.5,25.5c4.9,3.2,9.7,6.3,14.6,9.4c-0.9,1.6-1.8,3-2.7,4.6c-0.5-0.2-0.9-0.2-0.6-1
			c0.9-2.7,0.6-3.5-1.8-5.1c-0.5-0.3-1-0.7-1.6-1c-1.9,3-3.8,6-5.7,9c-0.9,1.4-1.8,2.9-2.7,4.3c-0.9,1.4-0.8,2,0.5,3.1
			c0.4,0.3,0.9,0.5,0.2,1.1c-2.5-1.6-5-3.2-7.5-4.9c0-0.1,0-0.2,0.1-0.4c0.3,0,0.6-0.1,0.9,0c1.8,0.8,2.2,0.7,3.2-0.9
			c2.8-4.4,5.6-8.7,8.4-13.2c-0.8-0.5-1.6-1-2.5-1.5c-1.8-1-2.6-0.8-4.2,0.7c-0.7,0.6-0.7,0.6-1.4,0.2
			C172.4,28.5,173.4,27.1,174.5,25.5z"/>
		<path class="st1" d="M30.7,63.5c1.5-2.3,3.1-4.7,4.6-7c0.1-0.2,0.4-0.3,0.7-0.4c0,0.3,0.1,0.6,0,0.9c-0.8,1.7-0.7,2.2,0.8,3.3
			c3.8,2.5,7.5,5.1,11.3,7.6c1.8,1.2,2.1,1.1,3.6-0.4c0.2-0.2,0.5-0.2,0.7-0.3c0,0.2,0,0.5-0.1,0.7c-1.5,2.2-2.9,4.5-4.4,6.7
			c-0.1,0.2-0.5,0.2-0.8,0.4c-0.1-0.1-0.1-0.2-0.2-0.3c0.1-0.1,0.2-0.3,0.2-0.4c1-1.7,0.9-2.3-0.8-3.4c-3.8-2.6-7.6-5.1-11.3-7.7
			c-1.7-1.1-2.1-1-3.4,0.5c-0.2,0.2-0.5,0.3-0.8,0.4C30.8,63.8,30.7,63.7,30.7,63.5z"/>
		<path class="st1" d="M83,32.4c-1.1,0-1.7-0.7-1.8-1.7c0-1,0.7-1.8,1.7-1.8c1,0,1.9,0.8,1.8,1.8C84.8,31.7,84.1,32.4,83,32.4z"/>
		<path class="st1" d="M48.3,52.6c0-1.1,0.7-1.8,1.7-1.8c1,0,1.8,0.8,1.8,1.8c0,1-0.9,1.9-1.9,1.9C49,54.5,48.3,53.7,48.3,52.6z"/>
		<path class="st1" d="M195.2,51.8c0,1.1-0.6,1.7-1.8,1.7c-1,0-1.8-0.8-1.8-1.8c0-0.9,0.9-1.8,1.8-1.8
			C194.6,50,195.2,50.7,195.2,51.8z"/>
		<path class="st1" d="M158.3,30.9c0-1,0.8-1.8,1.7-1.8c1,0,1.8,0.9,1.8,1.9c0,1-0.8,1.8-1.8,1.7C159.1,32.7,158.3,32,158.3,30.9z"
			/>
		<path class="st1" d="M122.9,21.6c1,0,1.8,0.7,1.8,1.7c0,1-0.9,1.8-1.8,1.8c-1,0-1.7-0.7-1.7-1.8C121.2,22.2,121.9,21.6,122.9,21.6
			z"/>
		<path class="st1" d="M121,119.9c0-1,0.7-1.6,1.6-1.6c0.9,0,1.7,0.8,1.6,1.6c0,0.8-0.8,1.7-1.7,1.7C121.7,121.7,121,121,121,119.9z
			"/>
		<path class="st1" d="M135.3,53.5c-1.3-0.3-2.5-0.4-3.7-0.8c-1.9-0.7-2.9-2.6-2.4-4.4c0.5-1.7,2.5-2.9,4.3-2.6
			c2.7,0.5,5.4,1.2,8.2,1c1.2-0.1,2.2,0.9,2.8,1.9c0.4,0.8,0.1,1.8-0.8,2.4c-0.8,0.5-1.6,0.9-2.5,1.2
			C139.2,52.7,137.2,53.1,135.3,53.5z M142.6,49.6c0-0.2,0-0.4-0.1-0.6c-0.4-0.1-0.7-0.2-1.1-0.2c-1.9,0.1-3.8,0-5.6-0.7
			c-0.9-0.4-1.9-0.5-2.9-0.5c-1.4,0-1.8,0.5-1.7,1.9c0.1,1,0.9,1.2,1.7,1.4c2.1,0.4,4.2,0.2,6.3-0.4C140.4,50.3,141.5,50,142.6,49.6
			z"/>
		<path class="st1" d="M171.7,101.6c-0.4-0.1-0.8-0.2-1.2-0.4c-1.8-1.1-2.8-4.4-1.9-6.3c0.6-1.3,1.5-1.6,2.8-1.1
			c2.5,1.1,3.8,4.6,2.3,6.6c-0.4,0.6-1.2,0.9-1.8,1.3C171.8,101.7,171.7,101.6,171.7,101.6z M171.7,99.7c1-1.1,0.3-3.6-1-3.9
			c-0.2,0-0.7,0.4-0.7,0.6C170.3,97.5,170.6,98.8,171.7,99.7z"/>
		<path class="st1" d="M161.5,113.2c-0.2,1.3-0.2,2.3-0.6,3.2c-0.2,0.6-0.9,1.3-1.5,1.5c-0.5,0.1-1.3-0.4-1.7-0.9
			c-1.3-1.6-2-3.6-2.1-5.6c-0.1-1.3,0.8-2.4,1.9-2.7c1.2-0.3,2.5,0.2,3,1.5C161,111.1,161.3,112.3,161.5,113.2z M159.1,115.3
			c0.5-1.6,0.5-3-0.1-4.3c-0.1-0.3-0.6-0.4-0.9-0.6c-0.1,0.3-0.4,0.6-0.4,0.9C157.6,112.8,158.3,114,159.1,115.3z"/>
		<path class="st1" d="M155.4,134.2c1.6,0.1,2.3,1.1,3,2.2c0.6,1,0.2,1.7-0.4,2.5c-0.2,0.3-0.7,0.6-1,0.5c-1.4-0.3-2.8-0.6-4-1.2
			c-0.6-0.3-1.2-1.2-1.2-1.8c0-0.6,0.8-1.3,1.5-1.6C153.9,134.4,154.8,134.3,155.4,134.2z M156.4,137.4c-0.5-1.3-0.5-1.3-2.3-0.7
			C154.9,137,155.6,137.2,156.4,137.4z"/>
	</g>
</g>
</svg>
